STARTFONT 2.1
FONT -FontForge-Px437 DOS/V re. JPN16-Book-R-Normal--16-720-16-16-C-80-ISO10646-1
SIZE 72 16 16
FONTBOUNDINGBOX 8 16 0 -1
COMMENT "Generated by fontforge, http://fontforge.sourceforge.net"
COMMENT "Outline (vector) version by VileR, 2020"
STARTPROPERTIES 41
FOUNDRY "FontForge"
FAMILY_NAME "Px437 DOS/V re. JPN16"
WEIGHT_NAME "Book"
SLANT "R"
SETWIDTH_NAME "Normal"
ADD_STYLE_NAME ""
PIXEL_SIZE 16
POINT_SIZE 720
RESOLUTION_X 16
RESOLUTION_Y 16
SPACING "C"
AVERAGE_WIDTH 80
CHARSET_REGISTRY "ISO10646"
CHARSET_ENCODING "1"
FONTNAME_REGISTRY ""
CHARSET_COLLECTIONS "ASCII ISOLatin1Encoding ISO10646-1"
FONT_NAME "Px437_DOS-V_re._JPN16"
FACE_NAME "Px437 DOS/V re. JPN16"
COPYRIGHT "Outline (vector) version by VileR, 2020"
FONT_VERSION "v2.1-2020-10"
FONT_ASCENT 15
FONT_DESCENT 1
UNDERLINE_POSITION 0
UNDERLINE_THICKNESS 1
X_HEIGHT 8
CAP_HEIGHT 13
DEFAULT_CHAR 1
RAW_ASCENT 937
RAW_DESCENT 62
NORM_SPACE 8
RELATIVE_WEIGHT 40
RELATIVE_SETWIDTH 50
SUPERSCRIPT_X 0
SUPERSCRIPT_Y 8
SUPERSCRIPT_SIZE 16
SUBSCRIPT_X 0
SUBSCRIPT_Y 8
SUBSCRIPT_SIZE 16
FIGURE_WIDTH 8
AVG_LOWERCASE_WIDTH 80
AVG_UPPERCASE_WIDTH 80
ENDPROPERTIES
CHARS 289
STARTCHAR uni0000
ENCODING 0
SWIDTH 500 0
DWIDTH 8 0
BBX 1 1 0 0
BITMAP
00
ENDCHAR
STARTCHAR uni0001
ENCODING 1
SWIDTH 500 0
DWIDTH 8 0
BBX 8 14 0 0
BITMAP
3C
42
81
81
A5
A5
81
81
81
BD
99
81
42
3C
ENDCHAR
STARTCHAR uni0002
ENCODING 2
SWIDTH 500 0
DWIDTH 8 0
BBX 8 14 0 0
BITMAP
3C
7E
FF
FF
DB
DB
FF
FF
FF
C3
E7
FF
7E
3C
ENDCHAR
STARTCHAR uni0003
ENCODING 3
SWIDTH 500 0
DWIDTH 8 0
BBX 7 13 1 0
BITMAP
6C
EE
FE
FE
FE
FE
FE
7C
7C
38
38
10
10
ENDCHAR
STARTCHAR uni0004
ENCODING 4
SWIDTH 500 0
DWIDTH 8 0
BBX 7 14 1 0
BITMAP
10
10
38
38
7C
7C
FE
FE
7C
7C
38
38
10
10
ENDCHAR
STARTCHAR uni0005
ENCODING 5
SWIDTH 500 0
DWIDTH 8 0
BBX 7 14 1 0
BITMAP
10
38
7C
7C
7C
38
38
FE
FE
FE
54
10
10
38
ENDCHAR
STARTCHAR uni0006
ENCODING 6
SWIDTH 500 0
DWIDTH 8 0
BBX 7 14 1 0
BITMAP
10
10
38
38
7C
7C
FE
FE
FE
FE
54
10
10
38
ENDCHAR
STARTCHAR uni0007
ENCODING 7
SWIDTH 500 0
DWIDTH 8 0
BBX 6 6 1 4
BITMAP
78
FC
FC
FC
FC
78
ENDCHAR
STARTCHAR uni0008
ENCODING 8
SWIDTH 500 0
DWIDTH 8 0
BBX 8 16 0 -1
BITMAP
FF
FF
FF
FF
FF
C3
81
81
81
81
C3
FF
FF
FF
FF
FF
ENDCHAR
STARTCHAR uni0009
ENCODING 9
SWIDTH 500 0
DWIDTH 8 0
BBX 6 6 1 4
BITMAP
78
84
84
84
84
78
ENDCHAR
STARTCHAR uni000A
ENCODING 10
SWIDTH 500 0
DWIDTH 8 0
BBX 8 16 0 -1
BITMAP
FF
FF
FF
FF
FF
C3
BD
BD
BD
BD
C3
FF
FF
FF
FF
FF
ENDCHAR
STARTCHAR uni000B
ENCODING 11
SWIDTH 500 0
DWIDTH 8 0
BBX 7 14 1 0
BITMAP
1E
06
0A
0A
10
38
44
82
82
82
82
82
44
38
ENDCHAR
STARTCHAR uni000C
ENCODING 12
SWIDTH 500 0
DWIDTH 8 0
BBX 7 14 1 0
BITMAP
38
44
82
82
82
82
82
44
38
10
10
7C
10
10
ENDCHAR
STARTCHAR uni000D
ENCODING 13
SWIDTH 500 0
DWIDTH 8 0
BBX 7 14 1 0
BITMAP
10
18
14
14
12
12
12
14
10
10
70
F0
F0
60
ENDCHAR
STARTCHAR uni000E
ENCODING 14
SWIDTH 500 0
DWIDTH 8 0
BBX 8 14 0 0
BITMAP
38
27
21
39
27
21
21
21
21
61
E3
E7
47
02
ENDCHAR
STARTCHAR uni000F
ENCODING 15
SWIDTH 500 0
DWIDTH 8 0
BBX 7 11 1 2
BITMAP
10
92
54
38
28
EE
28
38
54
92
10
ENDCHAR
STARTCHAR uni0010
ENCODING 16
SWIDTH 500 0
DWIDTH 8 0
BBX 7 13 1 0
BITMAP
80
C0
E0
F0
F8
FC
FE
FC
F8
F0
E0
C0
80
ENDCHAR
STARTCHAR uni0011
ENCODING 17
SWIDTH 500 0
DWIDTH 8 0
BBX 7 13 1 0
BITMAP
02
06
0E
1E
3E
7E
FE
7E
3E
1E
0E
06
02
ENDCHAR
STARTCHAR uni0012
ENCODING 18
SWIDTH 500 0
DWIDTH 8 0
BBX 5 12 2 1
BITMAP
20
70
A8
20
20
20
20
20
20
A8
70
20
ENDCHAR
STARTCHAR uni0013
ENCODING 19
SWIDTH 500 0
DWIDTH 8 0
BBX 7 14 1 0
BITMAP
44
EE
EE
EE
EE
44
44
44
44
00
00
44
EE
44
ENDCHAR
STARTCHAR uni0014
ENCODING 20
SWIDTH 500 0
DWIDTH 8 0
BBX 7 14 1 0
BITMAP
7E
F2
F2
F2
F2
72
12
12
12
12
12
12
12
12
ENDCHAR
STARTCHAR uni0015
ENCODING 21
SWIDTH 500 0
DWIDTH 8 0
BBX 7 14 1 0
BITMAP
38
44
82
80
40
38
44
44
38
04
02
82
44
38
ENDCHAR
STARTCHAR uni0016
ENCODING 22
SWIDTH 500 0
DWIDTH 8 0
BBX 7 4 1 0
BITMAP
FE
FE
FE
FE
ENDCHAR
STARTCHAR uni0017
ENCODING 23
SWIDTH 500 0
DWIDTH 8 0
BBX 7 13 1 0
BITMAP
10
38
54
10
10
10
10
10
10
54
38
10
FE
ENDCHAR
STARTCHAR uni0018
ENCODING 24
SWIDTH 500 0
DWIDTH 8 0
BBX 5 12 2 1
BITMAP
20
70
A8
20
20
20
20
20
20
20
20
20
ENDCHAR
STARTCHAR uni0019
ENCODING 25
SWIDTH 500 0
DWIDTH 8 0
BBX 5 12 2 1
BITMAP
20
20
20
20
20
20
20
20
20
A8
70
20
ENDCHAR
STARTCHAR uni001A
ENCODING 26
SWIDTH 500 0
DWIDTH 8 0
BBX 8 5 0 4
BITMAP
04
02
FF
02
04
ENDCHAR
STARTCHAR uni001B
ENCODING 27
SWIDTH 500 0
DWIDTH 8 0
BBX 8 5 0 4
BITMAP
20
40
FF
40
20
ENDCHAR
STARTCHAR uni001C
ENCODING 28
SWIDTH 500 0
DWIDTH 8 0
BBX 6 6 1 4
BITMAP
80
80
80
80
80
FC
ENDCHAR
STARTCHAR uni001D
ENCODING 29
SWIDTH 500 0
DWIDTH 8 0
BBX 8 5 0 4
BITMAP
24
42
FF
42
24
ENDCHAR
STARTCHAR uni001E
ENCODING 30
SWIDTH 500 0
DWIDTH 8 0
BBX 7 12 1 1
BITMAP
10
10
10
38
38
38
7C
7C
7C
FE
FE
FE
ENDCHAR
STARTCHAR uni001F
ENCODING 31
SWIDTH 500 0
DWIDTH 8 0
BBX 7 12 1 1
BITMAP
FE
FE
FE
7C
7C
7C
38
38
38
10
10
10
ENDCHAR
STARTCHAR space
ENCODING 32
SWIDTH 500 0
DWIDTH 8 0
BBX 1 1 0 0
BITMAP
00
ENDCHAR
STARTCHAR exclam
ENCODING 33
SWIDTH 500 0
DWIDTH 8 0
BBX 3 14 3 0
BITMAP
40
E0
E0
E0
E0
40
40
40
40
00
00
40
E0
40
ENDCHAR
STARTCHAR quotedbl
ENCODING 34
SWIDTH 500 0
DWIDTH 8 0
BBX 5 4 2 11
BITMAP
D8
D8
50
50
ENDCHAR
STARTCHAR numbersign
ENCODING 35
SWIDTH 500 0
DWIDTH 8 0
BBX 6 14 1 0
BITMAP
08
48
48
4C
78
C8
48
48
4C
78
C8
48
48
40
ENDCHAR
STARTCHAR dollar
ENCODING 36
SWIDTH 500 0
DWIDTH 8 0
BBX 7 16 1 -1
BITMAP
10
10
38
54
92
90
50
38
14
12
12
92
54
38
10
10
ENDCHAR
STARTCHAR percent
ENCODING 37
SWIDTH 500 0
DWIDTH 8 0
BBX 7 14 1 0
BITMAP
40
A2
A4
A4
A8
48
10
10
24
2A
4A
4A
8A
04
ENDCHAR
STARTCHAR ampersand
ENCODING 38
SWIDTH 500 0
DWIDTH 8 0
BBX 7 14 1 0
BITMAP
30
48
48
48
30
20
20
50
54
94
88
88
98
66
ENDCHAR
STARTCHAR quotesingle
ENCODING 39
SWIDTH 500 0
DWIDTH 8 0
BBX 2 4 4 11
BITMAP
C0
C0
80
80
ENDCHAR
STARTCHAR parenleft
ENCODING 40
SWIDTH 500 0
DWIDTH 8 0
BBX 4 16 3 -1
BITMAP
10
20
40
40
40
80
80
80
80
80
80
40
40
40
20
10
ENDCHAR
STARTCHAR parenright
ENCODING 41
SWIDTH 500 0
DWIDTH 8 0
BBX 4 16 2 -1
BITMAP
80
40
20
20
20
10
10
10
10
10
10
20
20
20
40
80
ENDCHAR
STARTCHAR asterisk
ENCODING 42
SWIDTH 500 0
DWIDTH 8 0
BBX 7 9 1 2
BITMAP
10
10
92
54
28
54
92
10
10
ENDCHAR
STARTCHAR plus
ENCODING 43
SWIDTH 500 0
DWIDTH 8 0
BBX 7 7 1 4
BITMAP
10
10
10
FE
10
10
10
ENDCHAR
STARTCHAR comma
ENCODING 44
SWIDTH 500 0
DWIDTH 8 0
BBX 2 4 2 -1
BITMAP
C0
C0
40
80
ENDCHAR
STARTCHAR hyphen
ENCODING 45
SWIDTH 500 0
DWIDTH 8 0
BBX 5 1 2 7
BITMAP
F8
ENDCHAR
STARTCHAR period
ENCODING 46
SWIDTH 500 0
DWIDTH 8 0
BBX 2 2 2 0
BITMAP
C0
C0
ENDCHAR
STARTCHAR slash
ENCODING 47
SWIDTH 500 0
DWIDTH 8 0
BBX 7 14 1 0
BITMAP
02
02
04
04
08
08
10
10
20
20
40
40
80
80
ENDCHAR
STARTCHAR zero
ENCODING 48
SWIDTH 500 0
DWIDTH 8 0
BBX 7 14 1 0
BITMAP
38
44
44
82
82
82
82
82
82
82
82
44
44
38
ENDCHAR
STARTCHAR one
ENCODING 49
SWIDTH 500 0
DWIDTH 8 0
BBX 5 14 2 0
BITMAP
20
60
A0
20
20
20
20
20
20
20
20
20
20
F8
ENDCHAR
STARTCHAR two
ENCODING 50
SWIDTH 500 0
DWIDTH 8 0
BBX 7 14 1 0
BITMAP
38
44
82
82
82
04
04
08
10
20
40
40
80
FE
ENDCHAR
STARTCHAR three
ENCODING 51
SWIDTH 500 0
DWIDTH 8 0
BBX 7 14 1 0
BITMAP
38
44
82
02
02
04
38
04
02
02
02
82
44
38
ENDCHAR
STARTCHAR four
ENCODING 52
SWIDTH 500 0
DWIDTH 8 0
BBX 7 14 1 0
BITMAP
08
18
18
28
28
28
48
48
88
88
FE
08
08
08
ENDCHAR
STARTCHAR five
ENCODING 53
SWIDTH 500 0
DWIDTH 8 0
BBX 6 14 2 0
BITMAP
FC
80
80
80
80
B0
C8
84
04
04
04
04
88
70
ENDCHAR
STARTCHAR six
ENCODING 54
SWIDTH 500 0
DWIDTH 8 0
BBX 7 14 1 0
BITMAP
38
44
82
80
80
B8
C4
82
82
82
82
82
44
38
ENDCHAR
STARTCHAR seven
ENCODING 55
SWIDTH 500 0
DWIDTH 8 0
BBX 7 14 1 0
BITMAP
FE
02
04
04
04
04
08
08
08
08
10
10
10
10
ENDCHAR
STARTCHAR eight
ENCODING 56
SWIDTH 500 0
DWIDTH 8 0
BBX 7 14 1 0
BITMAP
38
44
82
82
82
44
38
44
82
82
82
82
44
38
ENDCHAR
STARTCHAR nine
ENCODING 57
SWIDTH 500 0
DWIDTH 8 0
BBX 7 14 1 0
BITMAP
38
44
82
82
82
82
82
46
3A
02
02
82
44
38
ENDCHAR
STARTCHAR colon
ENCODING 58
SWIDTH 500 0
DWIDTH 8 0
BBX 2 8 3 3
BITMAP
C0
C0
00
00
00
00
C0
C0
ENDCHAR
STARTCHAR semicolon
ENCODING 59
SWIDTH 500 0
DWIDTH 8 0
BBX 2 10 3 1
BITMAP
C0
C0
00
00
00
00
C0
C0
40
80
ENDCHAR
STARTCHAR less
ENCODING 60
SWIDTH 500 0
DWIDTH 8 0
BBX 6 11 1 1
BITMAP
04
08
10
20
40
80
40
20
10
08
04
ENDCHAR
STARTCHAR equal
ENCODING 61
SWIDTH 500 0
DWIDTH 8 0
BBX 5 4 2 5
BITMAP
F8
00
00
F8
ENDCHAR
STARTCHAR greater
ENCODING 62
SWIDTH 500 0
DWIDTH 8 0
BBX 6 11 2 1
BITMAP
80
40
20
10
08
04
08
10
20
40
80
ENDCHAR
STARTCHAR question
ENCODING 63
SWIDTH 500 0
DWIDTH 8 0
BBX 7 14 1 0
BITMAP
38
44
82
82
04
08
10
10
10
00
00
10
10
10
ENDCHAR
STARTCHAR at
ENCODING 64
SWIDTH 500 0
DWIDTH 8 0
BBX 7 14 1 0
BITMAP
38
44
82
9A
AA
AA
AA
AA
AA
AA
94
80
42
3C
ENDCHAR
STARTCHAR A
ENCODING 65
SWIDTH 500 0
DWIDTH 8 0
BBX 7 14 1 0
BITMAP
10
28
28
28
44
44
44
44
7C
82
82
82
82
82
ENDCHAR
STARTCHAR B
ENCODING 66
SWIDTH 500 0
DWIDTH 8 0
BBX 7 14 1 0
BITMAP
F8
84
82
82
82
84
F8
84
82
82
82
82
84
F8
ENDCHAR
STARTCHAR C
ENCODING 67
SWIDTH 500 0
DWIDTH 8 0
BBX 7 14 1 0
BITMAP
38
44
82
82
80
80
80
80
80
80
82
82
44
38
ENDCHAR
STARTCHAR D
ENCODING 68
SWIDTH 500 0
DWIDTH 8 0
BBX 7 14 1 0
BITMAP
F8
84
84
82
82
82
82
82
82
82
82
84
84
F8
ENDCHAR
STARTCHAR E
ENCODING 69
SWIDTH 500 0
DWIDTH 8 0
BBX 7 14 1 0
BITMAP
FE
80
80
80
80
80
FC
80
80
80
80
80
80
FE
ENDCHAR
STARTCHAR F
ENCODING 70
SWIDTH 500 0
DWIDTH 8 0
BBX 7 14 1 0
BITMAP
FE
80
80
80
80
80
FC
80
80
80
80
80
80
80
ENDCHAR
STARTCHAR G
ENCODING 71
SWIDTH 500 0
DWIDTH 8 0
BBX 7 14 1 0
BITMAP
38
44
82
80
80
80
80
9E
82
82
82
82
46
3A
ENDCHAR
STARTCHAR H
ENCODING 72
SWIDTH 500 0
DWIDTH 8 0
BBX 7 14 1 0
BITMAP
82
82
82
82
82
82
FE
82
82
82
82
82
82
82
ENDCHAR
STARTCHAR I
ENCODING 73
SWIDTH 500 0
DWIDTH 8 0
BBX 5 14 2 0
BITMAP
F8
20
20
20
20
20
20
20
20
20
20
20
20
F8
ENDCHAR
STARTCHAR J
ENCODING 74
SWIDTH 500 0
DWIDTH 8 0
BBX 6 14 1 0
BITMAP
04
04
04
04
04
04
04
04
04
04
04
84
48
30
ENDCHAR
STARTCHAR K
ENCODING 75
SWIDTH 500 0
DWIDTH 8 0
BBX 7 14 1 0
BITMAP
82
84
84
88
90
90
A0
D0
90
88
88
84
84
82
ENDCHAR
STARTCHAR L
ENCODING 76
SWIDTH 500 0
DWIDTH 8 0
BBX 6 14 2 0
BITMAP
80
80
80
80
80
80
80
80
80
80
80
80
80
FC
ENDCHAR
STARTCHAR M
ENCODING 77
SWIDTH 500 0
DWIDTH 8 0
BBX 7 14 1 0
BITMAP
82
82
C6
C6
AA
AA
AA
92
92
82
82
82
82
82
ENDCHAR
STARTCHAR N
ENCODING 78
SWIDTH 500 0
DWIDTH 8 0
BBX 7 14 1 0
BITMAP
82
82
C2
C2
A2
A2
92
92
8A
8A
86
86
82
82
ENDCHAR
STARTCHAR O
ENCODING 79
SWIDTH 500 0
DWIDTH 8 0
BBX 7 14 1 0
BITMAP
38
44
82
82
82
82
82
82
82
82
82
82
44
38
ENDCHAR
STARTCHAR P
ENCODING 80
SWIDTH 500 0
DWIDTH 8 0
BBX 7 14 1 0
BITMAP
F8
84
82
82
82
82
84
F8
80
80
80
80
80
80
ENDCHAR
STARTCHAR Q
ENCODING 81
SWIDTH 500 0
DWIDTH 8 0
BBX 7 14 1 0
BITMAP
38
44
82
82
82
82
82
82
82
82
92
8A
44
3A
ENDCHAR
STARTCHAR R
ENCODING 82
SWIDTH 500 0
DWIDTH 8 0
BBX 7 14 1 0
BITMAP
F8
84
82
82
82
82
84
F8
88
88
84
84
84
82
ENDCHAR
STARTCHAR S
ENCODING 83
SWIDTH 500 0
DWIDTH 8 0
BBX 7 14 1 0
BITMAP
38
44
82
82
80
40
30
08
04
02
82
82
44
38
ENDCHAR
STARTCHAR T
ENCODING 84
SWIDTH 500 0
DWIDTH 8 0
BBX 7 14 1 0
BITMAP
FE
10
10
10
10
10
10
10
10
10
10
10
10
10
ENDCHAR
STARTCHAR U
ENCODING 85
SWIDTH 500 0
DWIDTH 8 0
BBX 7 14 1 0
BITMAP
82
82
82
82
82
82
82
82
82
82
82
82
44
38
ENDCHAR
STARTCHAR V
ENCODING 86
SWIDTH 500 0
DWIDTH 8 0
BBX 7 14 1 0
BITMAP
82
82
82
44
44
44
44
28
28
28
28
10
10
10
ENDCHAR
STARTCHAR W
ENCODING 87
SWIDTH 500 0
DWIDTH 8 0
BBX 7 14 1 0
BITMAP
82
82
82
82
82
92
92
92
AA
AA
AA
44
44
44
ENDCHAR
STARTCHAR X
ENCODING 88
SWIDTH 500 0
DWIDTH 8 0
BBX 7 14 1 0
BITMAP
82
82
44
44
28
28
10
10
28
28
44
44
82
82
ENDCHAR
STARTCHAR Y
ENCODING 89
SWIDTH 500 0
DWIDTH 8 0
BBX 7 14 1 0
BITMAP
82
82
44
44
44
28
28
10
10
10
10
10
10
10
ENDCHAR
STARTCHAR Z
ENCODING 90
SWIDTH 500 0
DWIDTH 8 0
BBX 7 14 1 0
BITMAP
FE
02
04
04
08
08
10
10
20
20
40
40
80
FE
ENDCHAR
STARTCHAR bracketleft
ENCODING 91
SWIDTH 500 0
DWIDTH 8 0
BBX 4 16 3 -1
BITMAP
F0
80
80
80
80
80
80
80
80
80
80
80
80
80
80
F0
ENDCHAR
STARTCHAR backslash
ENCODING 92
SWIDTH 500 0
DWIDTH 8 0
BBX 7 14 1 0
BITMAP
80
80
40
40
20
20
10
10
08
08
04
04
02
02
ENDCHAR
STARTCHAR bracketright
ENCODING 93
SWIDTH 500 0
DWIDTH 8 0
BBX 4 16 2 -1
BITMAP
F0
10
10
10
10
10
10
10
10
10
10
10
10
10
10
F0
ENDCHAR
STARTCHAR asciicircum
ENCODING 94
SWIDTH 500 0
DWIDTH 8 0
BBX 4 2 3 13
BITMAP
60
90
ENDCHAR
STARTCHAR underscore
ENCODING 95
SWIDTH 500 0
DWIDTH 8 0
BBX 7 1 1 -1
BITMAP
FE
ENDCHAR
STARTCHAR grave
ENCODING 96
SWIDTH 500 0
DWIDTH 8 0
BBX 3 3 3 12
BITMAP
80
40
20
ENDCHAR
STARTCHAR a
ENCODING 97
SWIDTH 500 0
DWIDTH 8 0
BBX 7 9 1 0
BITMAP
78
84
04
1C
64
84
84
8C
76
ENDCHAR
STARTCHAR b
ENCODING 98
SWIDTH 500 0
DWIDTH 8 0
BBX 6 14 2 0
BITMAP
80
80
80
80
80
B0
C8
84
84
84
84
84
C8
B0
ENDCHAR
STARTCHAR c
ENCODING 99
SWIDTH 500 0
DWIDTH 8 0
BBX 7 9 1 0
BITMAP
38
44
82
80
80
80
82
44
38
ENDCHAR
STARTCHAR d
ENCODING 100
SWIDTH 500 0
DWIDTH 8 0
BBX 6 14 1 0
BITMAP
04
04
04
04
04
34
4C
84
84
84
84
84
4C
34
ENDCHAR
STARTCHAR e
ENCODING 101
SWIDTH 500 0
DWIDTH 8 0
BBX 7 9 1 0
BITMAP
38
44
82
82
FE
80
80
42
3C
ENDCHAR
STARTCHAR f
ENCODING 102
SWIDTH 500 0
DWIDTH 8 0
BBX 6 14 2 0
BITMAP
1C
20
20
20
20
FC
20
20
20
20
20
20
20
20
ENDCHAR
STARTCHAR g
ENCODING 103
SWIDTH 500 0
DWIDTH 8 0
BBX 6 10 1 -1
BITMAP
34
4C
84
84
84
4C
34
84
48
30
ENDCHAR
STARTCHAR h
ENCODING 104
SWIDTH 500 0
DWIDTH 8 0
BBX 6 14 2 0
BITMAP
80
80
80
80
80
B8
C4
84
84
84
84
84
84
84
ENDCHAR
STARTCHAR i
ENCODING 105
SWIDTH 500 0
DWIDTH 8 0
BBX 1 13 4 0
BITMAP
80
80
00
00
80
80
80
80
80
80
80
80
80
ENDCHAR
STARTCHAR j
ENCODING 106
SWIDTH 500 0
DWIDTH 8 0
BBX 4 14 2 -1
BITMAP
10
10
00
00
10
10
10
10
10
10
10
90
90
60
ENDCHAR
STARTCHAR k
ENCODING 107
SWIDTH 500 0
DWIDTH 8 0
BBX 6 14 2 0
BITMAP
80
80
80
80
80
84
88
90
A0
D0
90
88
88
84
ENDCHAR
STARTCHAR l
ENCODING 108
SWIDTH 500 0
DWIDTH 8 0
BBX 2 14 4 0
BITMAP
80
80
80
80
80
80
80
80
80
80
80
80
80
C0
ENDCHAR
STARTCHAR m
ENCODING 109
SWIDTH 500 0
DWIDTH 8 0
BBX 7 9 1 0
BITMAP
A4
DA
92
92
92
92
92
92
92
ENDCHAR
STARTCHAR n
ENCODING 110
SWIDTH 500 0
DWIDTH 8 0
BBX 6 9 2 0
BITMAP
B8
C4
84
84
84
84
84
84
84
ENDCHAR
STARTCHAR o
ENCODING 111
SWIDTH 500 0
DWIDTH 8 0
BBX 7 9 1 0
BITMAP
38
44
82
82
82
82
82
44
38
ENDCHAR
STARTCHAR p
ENCODING 112
SWIDTH 500 0
DWIDTH 8 0
BBX 6 10 2 -1
BITMAP
B0
C8
84
84
84
84
C8
B0
80
80
ENDCHAR
STARTCHAR q
ENCODING 113
SWIDTH 500 0
DWIDTH 8 0
BBX 6 10 1 -1
BITMAP
34
4C
84
84
84
84
4C
34
04
04
ENDCHAR
STARTCHAR r
ENCODING 114
SWIDTH 500 0
DWIDTH 8 0
BBX 5 9 3 0
BITMAP
B8
C0
80
80
80
80
80
80
80
ENDCHAR
STARTCHAR s
ENCODING 115
SWIDTH 500 0
DWIDTH 8 0
BBX 6 9 2 0
BITMAP
78
84
80
80
78
04
04
84
78
ENDCHAR
STARTCHAR t
ENCODING 116
SWIDTH 500 0
DWIDTH 8 0
BBX 6 13 2 0
BITMAP
20
20
20
20
FC
20
20
20
20
20
20
20
1C
ENDCHAR
STARTCHAR u
ENCODING 117
SWIDTH 500 0
DWIDTH 8 0
BBX 6 9 1 0
BITMAP
84
84
84
84
84
84
84
8C
74
ENDCHAR
STARTCHAR v
ENCODING 118
SWIDTH 500 0
DWIDTH 8 0
BBX 7 9 1 0
BITMAP
82
82
44
44
44
28
28
10
10
ENDCHAR
STARTCHAR w
ENCODING 119
SWIDTH 500 0
DWIDTH 8 0
BBX 7 9 1 0
BITMAP
82
82
82
92
92
AA
44
44
44
ENDCHAR
STARTCHAR x
ENCODING 120
SWIDTH 500 0
DWIDTH 8 0
BBX 7 9 1 0
BITMAP
82
44
44
28
10
28
44
44
82
ENDCHAR
STARTCHAR y
ENCODING 121
SWIDTH 500 0
DWIDTH 8 0
BBX 7 10 1 -1
BITMAP
82
84
44
48
28
30
10
20
20
40
ENDCHAR
STARTCHAR z
ENCODING 122
SWIDTH 500 0
DWIDTH 8 0
BBX 7 9 1 0
BITMAP
FE
02
04
08
10
20
40
80
FE
ENDCHAR
STARTCHAR braceleft
ENCODING 123
SWIDTH 500 0
DWIDTH 8 0
BBX 4 16 3 -1
BITMAP
30
40
40
40
40
40
40
80
80
40
40
40
40
40
40
30
ENDCHAR
STARTCHAR bar
ENCODING 124
SWIDTH 500 0
DWIDTH 8 0
BBX 1 16 4 -1
BITMAP
80
80
80
80
80
80
80
80
80
80
80
80
80
80
80
80
ENDCHAR
STARTCHAR braceright
ENCODING 125
SWIDTH 500 0
DWIDTH 8 0
BBX 4 16 2 -1
BITMAP
C0
20
20
20
20
20
20
10
10
20
20
20
20
20
20
C0
ENDCHAR
STARTCHAR asciitilde
ENCODING 126
SWIDTH 500 0
DWIDTH 8 0
BBX 8 6 0 4
BITMAP
40
A0
90
09
05
02
ENDCHAR
STARTCHAR uni007F
ENCODING 127
SWIDTH 500 0
DWIDTH 8 0
BBX 7 7 1 2
BITMAP
10
28
44
82
82
82
FE
ENDCHAR
STARTCHAR uni00A0
ENCODING 160
SWIDTH 500 0
DWIDTH 8 0
BBX 1 1 0 0
BITMAP
00
ENDCHAR
STARTCHAR exclamdown
ENCODING 161
SWIDTH 500 0
DWIDTH 8 0
BBX 3 14 3 0
BITMAP
40
E0
40
00
00
40
40
40
40
E0
E0
E0
E0
40
ENDCHAR
STARTCHAR cent
ENCODING 162
SWIDTH 500 0
DWIDTH 8 0
BBX 7 13 1 0
BITMAP
10
10
38
54
92
90
90
90
92
54
38
10
10
ENDCHAR
STARTCHAR sterling
ENCODING 163
SWIDTH 500 0
DWIDTH 8 0
BBX 7 14 1 0
BITMAP
18
24
20
20
20
20
F8
20
20
20
60
A2
A2
5C
ENDCHAR
STARTCHAR yen
ENCODING 165
SWIDTH 500 0
DWIDTH 8 0
BBX 7 14 1 0
BITMAP
82
44
44
28
28
10
FE
10
10
FE
10
10
10
10
ENDCHAR
STARTCHAR section
ENCODING 167
SWIDTH 500 0
DWIDTH 8 0
BBX 7 14 1 0
BITMAP
38
44
82
80
40
38
44
44
38
04
02
82
44
38
ENDCHAR
STARTCHAR ordfeminine
ENCODING 170
SWIDTH 500 0
DWIDTH 8 0
BBX 6 8 2 6
BITMAP
70
88
38
48
98
6C
00
FC
ENDCHAR
STARTCHAR guillemotleft
ENCODING 171
SWIDTH 500 0
DWIDTH 8 0
BBX 6 5 1 3
BITMAP
24
48
90
48
24
ENDCHAR
STARTCHAR logicalnot
ENCODING 172
SWIDTH 500 0
DWIDTH 8 0
BBX 6 4 2 4
BITMAP
FC
04
04
04
ENDCHAR
STARTCHAR degree
ENCODING 176
SWIDTH 500 0
DWIDTH 8 0
BBX 5 5 2 9
BITMAP
70
88
88
88
70
ENDCHAR
STARTCHAR plusminus
ENCODING 177
SWIDTH 500 0
DWIDTH 8 0
BBX 7 10 1 1
BITMAP
10
10
10
FE
10
10
10
00
00
FE
ENDCHAR
STARTCHAR uni00B2
ENCODING 178
SWIDTH 500 0
DWIDTH 8 0
BBX 4 7 2 7
BITMAP
60
90
90
20
40
80
F0
ENDCHAR
STARTCHAR mu
ENCODING 181
SWIDTH 500 0
DWIDTH 8 0
BBX 7 10 1 -1
BITMAP
44
44
44
44
44
44
44
64
5A
C0
ENDCHAR
STARTCHAR paragraph
ENCODING 182
SWIDTH 500 0
DWIDTH 8 0
BBX 7 14 1 0
BITMAP
7E
F2
F2
F2
F2
72
12
12
12
12
12
12
12
12
ENDCHAR
STARTCHAR periodcentered
ENCODING 183
SWIDTH 500 0
DWIDTH 8 0
BBX 1 2 4 6
BITMAP
80
80
ENDCHAR
STARTCHAR ordmasculine
ENCODING 186
SWIDTH 500 0
DWIDTH 8 0
BBX 5 8 2 6
BITMAP
70
88
88
88
88
70
00
F8
ENDCHAR
STARTCHAR guillemotright
ENCODING 187
SWIDTH 500 0
DWIDTH 8 0
BBX 6 5 1 3
BITMAP
90
48
24
48
90
ENDCHAR
STARTCHAR onequarter
ENCODING 188
SWIDTH 500 0
DWIDTH 8 0
BBX 7 14 1 0
BITMAP
40
C0
44
44
48
E8
10
10
24
2C
4C
54
1E
04
ENDCHAR
STARTCHAR onehalf
ENCODING 189
SWIDTH 500 0
DWIDTH 8 0
BBX 7 14 1 0
BITMAP
40
C0
44
44
48
E8
10
10
2C
32
42
4C
10
1E
ENDCHAR
STARTCHAR questiondown
ENCODING 191
SWIDTH 500 0
DWIDTH 8 0
BBX 7 14 1 0
BITMAP
10
10
10
00
00
10
10
10
20
40
82
82
44
38
ENDCHAR
STARTCHAR Adieresis
ENCODING 196
SWIDTH 500 0
DWIDTH 8 0
BBX 7 14 1 0
BITMAP
82
82
10
28
28
44
44
44
7C
82
82
82
82
82
ENDCHAR
STARTCHAR Aring
ENCODING 197
SWIDTH 500 0
DWIDTH 8 0
BBX 7 15 1 0
BITMAP
10
28
10
10
28
28
44
44
44
7C
82
82
82
82
82
ENDCHAR
STARTCHAR AE
ENCODING 198
SWIDTH 500 0
DWIDTH 8 0
BBX 7 14 1 0
BITMAP
1E
28
28
28
48
48
4E
48
78
88
88
88
88
8E
ENDCHAR
STARTCHAR Ccedilla
ENCODING 199
SWIDTH 500 0
DWIDTH 8 0
BBX 7 15 1 -1
BITMAP
38
44
82
82
80
80
80
80
80
80
82
82
44
38
F0
ENDCHAR
STARTCHAR Eacute
ENCODING 201
SWIDTH 500 0
DWIDTH 8 0
BBX 7 14 1 0
BITMAP
08
10
FE
80
80
80
80
FC
80
80
80
80
80
FE
ENDCHAR
STARTCHAR Ntilde
ENCODING 209
SWIDTH 500 0
DWIDTH 8 0
BBX 7 15 1 0
BITMAP
32
4C
00
82
C2
C2
A2
A2
92
92
8A
8A
86
86
82
ENDCHAR
STARTCHAR Odieresis
ENCODING 214
SWIDTH 500 0
DWIDTH 8 0
BBX 7 14 1 0
BITMAP
82
82
38
44
82
82
82
82
82
82
82
82
44
38
ENDCHAR
STARTCHAR Udieresis
ENCODING 220
SWIDTH 500 0
DWIDTH 8 0
BBX 7 14 1 0
BITMAP
82
82
00
82
82
82
82
82
82
82
82
82
44
38
ENDCHAR
STARTCHAR germandbls
ENCODING 223
SWIDTH 500 0
DWIDTH 8 0
BBX 7 14 1 0
BITMAP
70
88
84
84
84
88
90
88
84
82
82
A2
A2
9C
ENDCHAR
STARTCHAR agrave
ENCODING 224
SWIDTH 500 0
DWIDTH 8 0
BBX 7 13 1 0
BITMAP
40
20
10
00
78
84
04
1C
64
84
84
8C
76
ENDCHAR
STARTCHAR aacute
ENCODING 225
SWIDTH 500 0
DWIDTH 8 0
BBX 7 13 1 0
BITMAP
08
10
20
00
78
84
04
1C
64
84
84
8C
76
ENDCHAR
STARTCHAR acircumflex
ENCODING 226
SWIDTH 500 0
DWIDTH 8 0
BBX 7 13 1 0
BITMAP
30
48
00
00
78
84
04
1C
64
84
84
8C
76
ENDCHAR
STARTCHAR adieresis
ENCODING 228
SWIDTH 500 0
DWIDTH 8 0
BBX 7 13 1 0
BITMAP
84
84
00
00
78
84
04
1C
64
84
84
8C
76
ENDCHAR
STARTCHAR aring
ENCODING 229
SWIDTH 500 0
DWIDTH 8 0
BBX 7 13 1 0
BITMAP
30
48
30
00
78
84
04
1C
64
84
84
8C
76
ENDCHAR
STARTCHAR ae
ENCODING 230
SWIDTH 500 0
DWIDTH 8 0
BBX 7 9 1 0
BITMAP
6C
92
12
32
5E
90
90
92
6C
ENDCHAR
STARTCHAR ccedilla
ENCODING 231
SWIDTH 500 0
DWIDTH 8 0
BBX 7 10 1 -1
BITMAP
38
44
82
80
80
80
82
44
38
F0
ENDCHAR
STARTCHAR egrave
ENCODING 232
SWIDTH 500 0
DWIDTH 8 0
BBX 7 13 1 0
BITMAP
40
20
10
00
38
44
82
82
FE
80
80
42
3C
ENDCHAR
STARTCHAR eacute
ENCODING 233
SWIDTH 500 0
DWIDTH 8 0
BBX 7 13 1 0
BITMAP
08
10
20
00
38
44
82
82
FE
80
80
42
3C
ENDCHAR
STARTCHAR ecircumflex
ENCODING 234
SWIDTH 500 0
DWIDTH 8 0
BBX 7 13 1 0
BITMAP
30
48
00
00
38
44
82
82
FE
80
80
42
3C
ENDCHAR
STARTCHAR edieresis
ENCODING 235
SWIDTH 500 0
DWIDTH 8 0
BBX 7 13 1 0
BITMAP
44
44
00
00
38
44
82
82
FE
80
80
42
3C
ENDCHAR
STARTCHAR igrave
ENCODING 236
SWIDTH 500 0
DWIDTH 8 0
BBX 3 13 3 0
BITMAP
80
40
20
00
40
40
40
40
40
40
40
40
40
ENDCHAR
STARTCHAR iacute
ENCODING 237
SWIDTH 500 0
DWIDTH 8 0
BBX 3 13 3 0
BITMAP
20
40
80
00
40
40
40
40
40
40
40
40
40
ENDCHAR
STARTCHAR icircumflex
ENCODING 238
SWIDTH 500 0
DWIDTH 8 0
BBX 4 13 2 0
BITMAP
60
90
00
00
20
20
20
20
20
20
20
20
20
ENDCHAR
STARTCHAR idieresis
ENCODING 239
SWIDTH 500 0
DWIDTH 8 0
BBX 5 13 2 0
BITMAP
88
88
00
00
20
20
20
20
20
20
20
20
20
ENDCHAR
STARTCHAR ntilde
ENCODING 241
SWIDTH 500 0
DWIDTH 8 0
BBX 6 13 2 0
BITMAP
64
98
00
00
B8
C4
84
84
84
84
84
84
84
ENDCHAR
STARTCHAR ograve
ENCODING 242
SWIDTH 500 0
DWIDTH 8 0
BBX 7 13 1 0
BITMAP
40
20
10
00
38
44
82
82
82
82
82
44
38
ENDCHAR
STARTCHAR oacute
ENCODING 243
SWIDTH 500 0
DWIDTH 8 0
BBX 7 13 1 0
BITMAP
04
08
10
00
38
44
82
82
82
82
82
44
38
ENDCHAR
STARTCHAR ocircumflex
ENCODING 244
SWIDTH 500 0
DWIDTH 8 0
BBX 7 13 1 0
BITMAP
30
48
00
00
38
44
82
82
82
82
82
44
38
ENDCHAR
STARTCHAR odieresis
ENCODING 246
SWIDTH 500 0
DWIDTH 8 0
BBX 7 13 1 0
BITMAP
44
44
00
00
38
44
82
82
82
82
82
44
38
ENDCHAR
STARTCHAR divide
ENCODING 247
SWIDTH 500 0
DWIDTH 8 0
BBX 7 9 1 2
BITMAP
10
38
10
00
FE
00
10
38
10
ENDCHAR
STARTCHAR ugrave
ENCODING 249
SWIDTH 500 0
DWIDTH 8 0
BBX 6 13 1 0
BITMAP
40
20
10
00
84
84
84
84
84
84
84
8C
74
ENDCHAR
STARTCHAR uacute
ENCODING 250
SWIDTH 500 0
DWIDTH 8 0
BBX 6 13 1 0
BITMAP
08
10
20
00
84
84
84
84
84
84
84
8C
74
ENDCHAR
STARTCHAR ucircumflex
ENCODING 251
SWIDTH 500 0
DWIDTH 8 0
BBX 6 13 1 0
BITMAP
30
48
00
00
84
84
84
84
84
84
84
8C
74
ENDCHAR
STARTCHAR udieresis
ENCODING 252
SWIDTH 500 0
DWIDTH 8 0
BBX 6 13 1 0
BITMAP
84
84
00
00
84
84
84
84
84
84
84
8C
74
ENDCHAR
STARTCHAR ydieresis
ENCODING 255
SWIDTH 500 0
DWIDTH 8 0
BBX 7 14 1 -1
BITMAP
44
44
00
00
82
84
44
48
28
30
10
20
20
40
ENDCHAR
STARTCHAR florin
ENCODING 402
SWIDTH 500 0
DWIDTH 8 0
BBX 7 15 1 -1
BITMAP
0C
12
10
10
10
10
7E
10
10
10
10
10
10
90
60
ENDCHAR
STARTCHAR Gamma
ENCODING 915
SWIDTH 500 0
DWIDTH 8 0
BBX 7 14 1 0
BITMAP
FE
80
80
80
80
80
80
80
80
80
80
80
80
80
ENDCHAR
STARTCHAR Theta
ENCODING 920
SWIDTH 500 0
DWIDTH 8 0
BBX 7 14 1 0
BITMAP
38
44
44
82
82
82
BA
82
82
82
82
44
44
38
ENDCHAR
STARTCHAR Sigma
ENCODING 931
SWIDTH 500 0
DWIDTH 8 0
BBX 7 14 1 0
BITMAP
FE
40
40
20
20
10
08
10
20
20
40
40
80
FE
ENDCHAR
STARTCHAR Phi
ENCODING 934
SWIDTH 500 0
DWIDTH 8 0
BBX 7 14 1 0
BITMAP
7C
10
10
38
54
92
92
92
92
54
38
10
10
7C
ENDCHAR
STARTCHAR uni03A9
ENCODING 937
SWIDTH 500 0
DWIDTH 8 0
BBX 7 14 1 0
BITMAP
38
44
44
82
82
82
82
82
44
44
28
28
28
EE
ENDCHAR
STARTCHAR alpha
ENCODING 945
SWIDTH 500 0
DWIDTH 8 0
BBX 7 9 1 0
BITMAP
32
4C
84
84
84
84
84
4C
32
ENDCHAR
STARTCHAR delta
ENCODING 948
SWIDTH 500 0
DWIDTH 8 0
BBX 7 14 1 0
BITMAP
0C
12
10
10
08
38
4C
84
84
84
84
84
48
30
ENDCHAR
STARTCHAR epsilon
ENCODING 949
SWIDTH 500 0
DWIDTH 8 0
BBX 6 14 1 0
BITMAP
1C
20
40
40
80
80
F8
80
80
80
40
40
20
1C
ENDCHAR
STARTCHAR pi
ENCODING 960
SWIDTH 500 0
DWIDTH 8 0
BBX 7 9 1 0
BITMAP
FE
44
44
44
44
44
44
44
44
ENDCHAR
STARTCHAR sigma
ENCODING 963
SWIDTH 500 0
DWIDTH 8 0
BBX 7 10 1 0
BITMAP
02
3C
48
84
84
84
84
84
48
30
ENDCHAR
STARTCHAR tau
ENCODING 964
SWIDTH 500 0
DWIDTH 8 0
BBX 7 9 1 0
BITMAP
72
9C
10
10
10
10
10
10
10
ENDCHAR
STARTCHAR phi
ENCODING 966
SWIDTH 500 0
DWIDTH 8 0
BBX 7 14 1 0
BITMAP
02
02
3C
44
8A
8A
92
92
A2
A2
44
78
80
80
ENDCHAR
STARTCHAR bullet
ENCODING 8226
SWIDTH 500 0
DWIDTH 8 0
BBX 6 6 1 4
BITMAP
78
FC
FC
FC
FC
78
ENDCHAR
STARTCHAR exclamdbl
ENCODING 8252
SWIDTH 500 0
DWIDTH 8 0
BBX 7 14 1 0
BITMAP
44
EE
EE
EE
EE
44
44
44
44
00
00
44
EE
44
ENDCHAR
STARTCHAR uni207F
ENCODING 8319
SWIDTH 500 0
DWIDTH 8 0
BBX 5 7 2 7
BITMAP
B0
C8
88
88
88
88
88
ENDCHAR
STARTCHAR peseta
ENCODING 8359
SWIDTH 500 0
DWIDTH 8 0
BBX 7 15 1 -1
BITMAP
F8
84
82
82
82
84
F8
80
88
9E
88
88
88
88
06
ENDCHAR
STARTCHAR arrowleft
ENCODING 8592
SWIDTH 500 0
DWIDTH 8 0
BBX 8 5 0 4
BITMAP
20
40
FF
40
20
ENDCHAR
STARTCHAR arrowup
ENCODING 8593
SWIDTH 500 0
DWIDTH 8 0
BBX 5 12 2 1
BITMAP
20
70
A8
20
20
20
20
20
20
20
20
20
ENDCHAR
STARTCHAR arrowright
ENCODING 8594
SWIDTH 500 0
DWIDTH 8 0
BBX 8 5 0 4
BITMAP
04
02
FF
02
04
ENDCHAR
STARTCHAR arrowdown
ENCODING 8595
SWIDTH 500 0
DWIDTH 8 0
BBX 5 12 2 1
BITMAP
20
20
20
20
20
20
20
20
20
A8
70
20
ENDCHAR
STARTCHAR arrowboth
ENCODING 8596
SWIDTH 500 0
DWIDTH 8 0
BBX 8 5 0 4
BITMAP
24
42
FF
42
24
ENDCHAR
STARTCHAR arrowupdn
ENCODING 8597
SWIDTH 500 0
DWIDTH 8 0
BBX 5 12 2 1
BITMAP
20
70
A8
20
20
20
20
20
20
A8
70
20
ENDCHAR
STARTCHAR arrowupdnbse
ENCODING 8616
SWIDTH 500 0
DWIDTH 8 0
BBX 7 13 1 0
BITMAP
10
38
54
10
10
10
10
10
10
54
38
10
FE
ENDCHAR
STARTCHAR uni2219
ENCODING 8729
SWIDTH 500 0
DWIDTH 8 0
BBX 2 2 3 6
BITMAP
C0
C0
ENDCHAR
STARTCHAR radical
ENCODING 8730
SWIDTH 500 0
DWIDTH 8 0
BBX 7 14 1 0
BITMAP
06
04
04
04
04
08
08
08
48
D0
50
30
30
10
ENDCHAR
STARTCHAR infinity
ENCODING 8734
SWIDTH 500 0
DWIDTH 8 0
BBX 7 5 1 3
BITMAP
6C
92
92
92
6C
ENDCHAR
STARTCHAR orthogonal
ENCODING 8735
SWIDTH 500 0
DWIDTH 8 0
BBX 6 6 1 4
BITMAP
80
80
80
80
80
FC
ENDCHAR
STARTCHAR intersection
ENCODING 8745
SWIDTH 500 0
DWIDTH 8 0
BBX 7 14 1 0
BITMAP
38
44
82
82
82
82
82
82
82
82
82
82
82
82
ENDCHAR
STARTCHAR approxequal
ENCODING 8776
SWIDTH 500 0
DWIDTH 8 0
BBX 6 8 1 3
BITMAP
40
A4
94
08
40
A4
94
08
ENDCHAR
STARTCHAR equivalence
ENCODING 8801
SWIDTH 500 0
DWIDTH 8 0
BBX 6 7 1 3
BITMAP
FC
00
00
FC
00
00
FC
ENDCHAR
STARTCHAR lessequal
ENCODING 8804
SWIDTH 500 0
DWIDTH 8 0
BBX 6 11 1 1
BITMAP
08
10
20
40
80
40
20
10
08
00
FC
ENDCHAR
STARTCHAR greaterequal
ENCODING 8805
SWIDTH 500 0
DWIDTH 8 0
BBX 6 11 1 1
BITMAP
40
20
10
08
04
08
10
20
40
00
FC
ENDCHAR
STARTCHAR house
ENCODING 8962
SWIDTH 500 0
DWIDTH 8 0
BBX 7 7 1 2
BITMAP
10
28
44
82
82
82
FE
ENDCHAR
STARTCHAR revlogicalnot
ENCODING 8976
SWIDTH 500 0
DWIDTH 8 0
BBX 6 4 2 4
BITMAP
FC
80
80
80
ENDCHAR
STARTCHAR integraltp
ENCODING 8992
SWIDTH 500 0
DWIDTH 8 0
BBX 4 15 4 -1
BITMAP
60
90
90
90
80
80
80
80
80
80
80
80
80
80
80
ENDCHAR
STARTCHAR integralbt
ENCODING 8993
SWIDTH 500 0
DWIDTH 8 0
BBX 4 15 1 0
BITMAP
10
10
10
10
10
10
10
10
10
10
10
90
90
90
60
ENDCHAR
STARTCHAR SF100000
ENCODING 9472
SWIDTH 500 0
DWIDTH 8 0
BBX 8 1 0 7
BITMAP
FF
ENDCHAR
STARTCHAR SF110000
ENCODING 9474
SWIDTH 500 0
DWIDTH 8 0
BBX 1 16 4 -1
BITMAP
80
80
80
80
80
80
80
80
80
80
80
80
80
80
80
80
ENDCHAR
STARTCHAR SF010000
ENCODING 9484
SWIDTH 500 0
DWIDTH 8 0
BBX 4 9 4 -1
BITMAP
F0
80
80
80
80
80
80
80
80
ENDCHAR
STARTCHAR SF030000
ENCODING 9488
SWIDTH 500 0
DWIDTH 8 0
BBX 5 9 0 -1
BITMAP
F8
08
08
08
08
08
08
08
08
ENDCHAR
STARTCHAR SF020000
ENCODING 9492
SWIDTH 500 0
DWIDTH 8 0
BBX 4 8 4 7
BITMAP
80
80
80
80
80
80
80
F0
ENDCHAR
STARTCHAR SF040000
ENCODING 9496
SWIDTH 500 0
DWIDTH 8 0
BBX 5 8 0 7
BITMAP
08
08
08
08
08
08
08
F8
ENDCHAR
STARTCHAR SF080000
ENCODING 9500
SWIDTH 500 0
DWIDTH 8 0
BBX 4 16 4 -1
BITMAP
80
80
80
80
80
80
80
F0
80
80
80
80
80
80
80
80
ENDCHAR
STARTCHAR SF090000
ENCODING 9508
SWIDTH 500 0
DWIDTH 8 0
BBX 5 16 0 -1
BITMAP
08
08
08
08
08
08
08
F8
08
08
08
08
08
08
08
08
ENDCHAR
STARTCHAR SF060000
ENCODING 9516
SWIDTH 500 0
DWIDTH 8 0
BBX 8 9 0 -1
BITMAP
FF
08
08
08
08
08
08
08
08
ENDCHAR
STARTCHAR SF070000
ENCODING 9524
SWIDTH 500 0
DWIDTH 8 0
BBX 8 8 0 7
BITMAP
08
08
08
08
08
08
08
FF
ENDCHAR
STARTCHAR SF050000
ENCODING 9532
SWIDTH 500 0
DWIDTH 8 0
BBX 8 16 0 -1
BITMAP
08
08
08
08
08
08
08
FF
08
08
08
08
08
08
08
08
ENDCHAR
STARTCHAR SF430000
ENCODING 9552
SWIDTH 500 0
DWIDTH 8 0
BBX 8 3 0 6
BITMAP
FF
00
FF
ENDCHAR
STARTCHAR SF240000
ENCODING 9553
SWIDTH 500 0
DWIDTH 8 0
BBX 3 16 3 -1
BITMAP
A0
A0
A0
A0
A0
A0
A0
A0
A0
A0
A0
A0
A0
A0
A0
A0
ENDCHAR
STARTCHAR SF510000
ENCODING 9554
SWIDTH 500 0
DWIDTH 8 0
BBX 4 10 4 -1
BITMAP
F0
80
F0
80
80
80
80
80
80
80
ENDCHAR
STARTCHAR SF520000
ENCODING 9555
SWIDTH 500 0
DWIDTH 8 0
BBX 5 9 3 -1
BITMAP
F8
A0
A0
A0
A0
A0
A0
A0
A0
ENDCHAR
STARTCHAR SF390000
ENCODING 9556
SWIDTH 500 0
DWIDTH 8 0
BBX 5 10 3 -1
BITMAP
F8
80
B8
A0
A0
A0
A0
A0
A0
A0
ENDCHAR
STARTCHAR SF220000
ENCODING 9557
SWIDTH 500 0
DWIDTH 8 0
BBX 5 10 0 -1
BITMAP
F8
08
F8
08
08
08
08
08
08
08
ENDCHAR
STARTCHAR SF210000
ENCODING 9558
SWIDTH 500 0
DWIDTH 8 0
BBX 6 9 0 -1
BITMAP
FC
14
14
14
14
14
14
14
14
ENDCHAR
STARTCHAR SF250000
ENCODING 9559
SWIDTH 500 0
DWIDTH 8 0
BBX 6 10 0 -1
BITMAP
FC
04
F4
14
14
14
14
14
14
14
ENDCHAR
STARTCHAR SF500000
ENCODING 9560
SWIDTH 500 0
DWIDTH 8 0
BBX 4 9 4 6
BITMAP
80
80
80
80
80
80
F0
80
F0
ENDCHAR
STARTCHAR SF490000
ENCODING 9561
SWIDTH 500 0
DWIDTH 8 0
BBX 5 8 3 7
BITMAP
A0
A0
A0
A0
A0
A0
A0
F8
ENDCHAR
STARTCHAR SF380000
ENCODING 9562
SWIDTH 500 0
DWIDTH 8 0
BBX 5 9 3 6
BITMAP
A0
A0
A0
A0
A0
A0
B8
80
F8
ENDCHAR
STARTCHAR SF280000
ENCODING 9563
SWIDTH 500 0
DWIDTH 8 0
BBX 5 9 0 6
BITMAP
08
08
08
08
08
08
F8
08
F8
ENDCHAR
STARTCHAR SF270000
ENCODING 9564
SWIDTH 500 0
DWIDTH 8 0
BBX 6 8 0 7
BITMAP
14
14
14
14
14
14
14
FC
ENDCHAR
STARTCHAR SF260000
ENCODING 9565
SWIDTH 500 0
DWIDTH 8 0
BBX 6 9 0 6
BITMAP
14
14
14
14
14
14
F4
04
FC
ENDCHAR
STARTCHAR SF360000
ENCODING 9566
SWIDTH 500 0
DWIDTH 8 0
BBX 4 16 4 -1
BITMAP
80
80
80
80
80
80
F0
80
F0
80
80
80
80
80
80
80
ENDCHAR
STARTCHAR SF370000
ENCODING 9567
SWIDTH 500 0
DWIDTH 8 0
BBX 5 16 3 -1
BITMAP
A0
A0
A0
A0
A0
A0
A0
B8
A0
A0
A0
A0
A0
A0
A0
A0
ENDCHAR
STARTCHAR SF420000
ENCODING 9568
SWIDTH 500 0
DWIDTH 8 0
BBX 5 16 3 -1
BITMAP
A0
A0
A0
A0
A0
A0
B8
80
B8
A0
A0
A0
A0
A0
A0
A0
ENDCHAR
STARTCHAR SF190000
ENCODING 9569
SWIDTH 500 0
DWIDTH 8 0
BBX 5 16 0 -1
BITMAP
08
08
08
08
08
08
F8
08
F8
08
08
08
08
08
08
08
ENDCHAR
STARTCHAR SF200000
ENCODING 9570
SWIDTH 500 0
DWIDTH 8 0
BBX 6 16 0 -1
BITMAP
14
14
14
14
14
14
14
F4
14
14
14
14
14
14
14
14
ENDCHAR
STARTCHAR SF230000
ENCODING 9571
SWIDTH 500 0
DWIDTH 8 0
BBX 6 16 0 -1
BITMAP
14
14
14
14
14
14
F4
04
F4
14
14
14
14
14
14
14
ENDCHAR
STARTCHAR SF470000
ENCODING 9572
SWIDTH 500 0
DWIDTH 8 0
BBX 8 10 0 -1
BITMAP
FF
00
FF
08
08
08
08
08
08
08
ENDCHAR
STARTCHAR SF480000
ENCODING 9573
SWIDTH 500 0
DWIDTH 8 0
BBX 8 9 0 -1
BITMAP
FF
14
14
14
14
14
14
14
14
ENDCHAR
STARTCHAR SF410000
ENCODING 9574
SWIDTH 500 0
DWIDTH 8 0
BBX 8 10 0 -1
BITMAP
FF
00
F7
14
14
14
14
14
14
14
ENDCHAR
STARTCHAR SF450000
ENCODING 9575
SWIDTH 500 0
DWIDTH 8 0
BBX 8 9 0 6
BITMAP
08
08
08
08
08
08
FF
00
FF
ENDCHAR
STARTCHAR SF460000
ENCODING 9576
SWIDTH 500 0
DWIDTH 8 0
BBX 8 8 0 7
BITMAP
14
14
14
14
14
14
14
FF
ENDCHAR
STARTCHAR SF400000
ENCODING 9577
SWIDTH 500 0
DWIDTH 8 0
BBX 8 9 0 6
BITMAP
14
14
14
14
14
14
F7
00
FF
ENDCHAR
STARTCHAR SF540000
ENCODING 9578
SWIDTH 500 0
DWIDTH 8 0
BBX 8 16 0 -1
BITMAP
08
08
08
08
08
08
FF
00
FF
08
08
08
08
08
08
08
ENDCHAR
STARTCHAR SF530000
ENCODING 9579
SWIDTH 500 0
DWIDTH 8 0
BBX 8 16 0 -1
BITMAP
14
14
14
14
14
14
14
F7
14
14
14
14
14
14
14
14
ENDCHAR
STARTCHAR SF440000
ENCODING 9580
SWIDTH 500 0
DWIDTH 8 0
BBX 8 16 0 -1
BITMAP
14
14
14
14
14
14
F7
00
F7
14
14
14
14
14
14
14
ENDCHAR
STARTCHAR upblock
ENCODING 9600
SWIDTH 500 0
DWIDTH 8 0
BBX 8 8 0 7
BITMAP
FF
FF
FF
FF
FF
FF
FF
FF
ENDCHAR
STARTCHAR dnblock
ENCODING 9604
SWIDTH 500 0
DWIDTH 8 0
BBX 8 8 0 -1
BITMAP
FF
FF
FF
FF
FF
FF
FF
FF
ENDCHAR
STARTCHAR block
ENCODING 9608
SWIDTH 500 0
DWIDTH 8 0
BBX 8 16 0 -1
BITMAP
FF
FF
FF
FF
FF
FF
FF
FF
FF
FF
FF
FF
FF
FF
FF
FF
ENDCHAR
STARTCHAR lfblock
ENCODING 9612
SWIDTH 500 0
DWIDTH 8 0
BBX 4 16 0 -1
BITMAP
F0
F0
F0
F0
F0
F0
F0
F0
F0
F0
F0
F0
F0
F0
F0
F0
ENDCHAR
STARTCHAR rtblock
ENCODING 9616
SWIDTH 500 0
DWIDTH 8 0
BBX 4 16 4 -1
BITMAP
F0
F0
F0
F0
F0
F0
F0
F0
F0
F0
F0
F0
F0
F0
F0
F0
ENDCHAR
STARTCHAR ltshade
ENCODING 9617
SWIDTH 500 0
DWIDTH 8 0
BBX 8 16 0 -1
BITMAP
92
49
24
92
49
24
92
49
24
92
49
24
92
49
24
92
ENDCHAR
STARTCHAR shade
ENCODING 9618
SWIDTH 500 0
DWIDTH 8 0
BBX 8 16 0 -1
BITMAP
55
AA
55
AA
55
AA
55
AA
55
AA
55
AA
55
AA
55
AA
ENDCHAR
STARTCHAR dkshade
ENCODING 9619
SWIDTH 500 0
DWIDTH 8 0
BBX 8 16 0 -1
BITMAP
6D
B6
DB
6D
B6
DB
6D
B6
DB
6D
B6
DB
6D
B6
DB
6D
ENDCHAR
STARTCHAR filledbox
ENCODING 9632
SWIDTH 500 0
DWIDTH 8 0
BBX 4 5 2 4
BITMAP
F0
F0
F0
F0
F0
ENDCHAR
STARTCHAR filledrect
ENCODING 9644
SWIDTH 500 0
DWIDTH 8 0
BBX 7 4 1 0
BITMAP
FE
FE
FE
FE
ENDCHAR
STARTCHAR triagup
ENCODING 9650
SWIDTH 500 0
DWIDTH 8 0
BBX 7 12 1 1
BITMAP
10
10
10
38
38
38
7C
7C
7C
FE
FE
FE
ENDCHAR
STARTCHAR triagrt
ENCODING 9658
SWIDTH 500 0
DWIDTH 8 0
BBX 7 13 1 0
BITMAP
80
C0
E0
F0
F8
FC
FE
FC
F8
F0
E0
C0
80
ENDCHAR
STARTCHAR triagdn
ENCODING 9660
SWIDTH 500 0
DWIDTH 8 0
BBX 7 12 1 1
BITMAP
FE
FE
FE
7C
7C
7C
38
38
38
10
10
10
ENDCHAR
STARTCHAR triaglf
ENCODING 9668
SWIDTH 500 0
DWIDTH 8 0
BBX 7 13 1 0
BITMAP
02
06
0E
1E
3E
7E
FE
7E
3E
1E
0E
06
02
ENDCHAR
STARTCHAR circle
ENCODING 9675
SWIDTH 500 0
DWIDTH 8 0
BBX 6 6 1 4
BITMAP
78
84
84
84
84
78
ENDCHAR
STARTCHAR invbullet
ENCODING 9688
SWIDTH 500 0
DWIDTH 8 0
BBX 8 16 0 -1
BITMAP
FF
FF
FF
FF
FF
C3
81
81
81
81
C3
FF
FF
FF
FF
FF
ENDCHAR
STARTCHAR invcircle
ENCODING 9689
SWIDTH 500 0
DWIDTH 8 0
BBX 8 16 0 -1
BITMAP
FF
FF
FF
FF
FF
C3
BD
BD
BD
BD
C3
FF
FF
FF
FF
FF
ENDCHAR
STARTCHAR smileface
ENCODING 9786
SWIDTH 500 0
DWIDTH 8 0
BBX 8 14 0 0
BITMAP
3C
42
81
81
A5
A5
81
81
81
BD
99
81
42
3C
ENDCHAR
STARTCHAR invsmileface
ENCODING 9787
SWIDTH 500 0
DWIDTH 8 0
BBX 8 14 0 0
BITMAP
3C
7E
FF
FF
DB
DB
FF
FF
FF
C3
E7
FF
7E
3C
ENDCHAR
STARTCHAR sun
ENCODING 9788
SWIDTH 500 0
DWIDTH 8 0
BBX 7 11 1 2
BITMAP
10
92
54
38
28
EE
28
38
54
92
10
ENDCHAR
STARTCHAR female
ENCODING 9792
SWIDTH 500 0
DWIDTH 8 0
BBX 7 14 1 0
BITMAP
38
44
82
82
82
82
82
44
38
10
10
7C
10
10
ENDCHAR
STARTCHAR male
ENCODING 9794
SWIDTH 500 0
DWIDTH 8 0
BBX 7 14 1 0
BITMAP
1E
06
0A
0A
10
38
44
82
82
82
82
82
44
38
ENDCHAR
STARTCHAR spade
ENCODING 9824
SWIDTH 500 0
DWIDTH 8 0
BBX 7 14 1 0
BITMAP
10
10
38
38
7C
7C
FE
FE
FE
FE
54
10
10
38
ENDCHAR
STARTCHAR club
ENCODING 9827
SWIDTH 500 0
DWIDTH 8 0
BBX 7 14 1 0
BITMAP
10
38
7C
7C
7C
38
38
FE
FE
FE
54
10
10
38
ENDCHAR
STARTCHAR heart
ENCODING 9829
SWIDTH 500 0
DWIDTH 8 0
BBX 7 13 1 0
BITMAP
6C
EE
FE
FE
FE
FE
FE
7C
7C
38
38
10
10
ENDCHAR
STARTCHAR diamond
ENCODING 9830
SWIDTH 500 0
DWIDTH 8 0
BBX 7 14 1 0
BITMAP
10
10
38
38
7C
7C
FE
FE
7C
7C
38
38
10
10
ENDCHAR
STARTCHAR musicalnote
ENCODING 9834
SWIDTH 500 0
DWIDTH 8 0
BBX 7 14 1 0
BITMAP
10
18
14
14
12
12
12
14
10
10
70
F0
F0
60
ENDCHAR
STARTCHAR musicalnotedbl
ENCODING 9835
SWIDTH 500 0
DWIDTH 8 0
BBX 8 14 0 0
BITMAP
38
27
21
39
27
21
21
21
21
61
E3
E7
47
02
ENDCHAR
STARTCHAR .notdef
ENCODING -1
SWIDTH 500 0
DWIDTH 8 0
BBX 5 11 1 0
BITMAP
F8
88
88
88
88
88
88
88
88
88
F8
ENDCHAR
ENDFONT
